# xmcd
#
# Track frame offsets: 
#        182
#        35272
#        51397
#        82795
#        112970
#        124155
#        143697
#        160387
#        175620
#        188187
#        207060
#        226917
#        245220
#        300062
#
# Disc length: 4284 seconds
#
# Revision: 2
# Processed by: cddbd v1.5.2PL0 Copyright (c) Steve Scherf et al.
# Submitted via: ExactAudioCopy v0.95a5
#
DISCID=ab10ba0e
DTITLE=SKY - SKY 2
DYEAR=1900
DGENRE=
TTITLE0=Hotta
TTITLE1=Dance of the little fairies
TTITLE2=Sahara
TTITLE3=Fifo
TTITLE4=Adagio
TTITLE5=Scherzo
TTITLE6=Watching the airplanes
TTITLE7=Tuba smarties
TTITLE8=Ballet-volta
TTITLE9=Tristan's magic garden
TTITLE10=El cielo
TTITLE11=Vivaldi
TTITLE12=Scipio
TTITLE13=Toccata
EXTD=
EXTT0=
EXTT1=
EXTT2=
EXTT3=
EXTT4=
EXTT5=
EXTT6=
EXTT7=
EXTT8=
EXTT9=
EXTT10=
EXTT11=
EXTT12=
EXTT13=
PLAYORDER=
